<?xml version="1.0" standalone="no"?>
<!DOCTYPE svg PUBLIC "-//W3C//DTD SVG 20010904//EN"
 "http://www.w3.org/TR/2001/REC-SVG-20010904/DTD/svg10.dtd">
<svg version="1.0" xmlns="http://www.w3.org/2000/svg"
 width="2000.000000pt" height="2000.000000pt" viewBox="0 0 2000.000000 2000.000000"
 preserveAspectRatio="xMidYMid meet">

<g transform="translate(0.000000,2000.000000) scale(0.100000,-0.100000)"
fill="#000000" stroke="none">
<path d="M9615 18654 c-296 -33 -678 -132 -952 -245 -583 -242 -1115 -662
-1491 -1176 -278 -379 -497 -880 -592 -1353 -56 -275 -64 -369 -64 -690 0
-322 10 -429 65 -702 192 -950 777 -1783 1604 -2283 127 -76 433 -228 550
-273 140 -53 443 -147 451 -139 2 2 -10 22 -28 45 -18 22 -91 112 -162 200
-141 175 -331 451 -319 463 5 4 38 15 76 23 96 22 162 59 240 134 39 38 71 62
76 56 4 -5 43 -61 86 -124 103 -153 246 -343 252 -336 3 3 -1 51 -8 108 -9 69
-14 206 -14 413 0 330 10 448 60 721 224 1217 1054 2294 2182 2830 441 210
896 335 1371 375 75 7 138 13 140 15 7 4 -83 173 -146 274 -368 591 -856 1037
-1457 1330 -372 181 -839 312 -1215 340 -178 13 -564 10 -705 -6z"/>
<path d="M12970 16243 c-422 -68 -525 -91 -761 -172 -806 -275 -1476 -827
-1900 -1566 -220 -385 -371 -822 -434 -1265 -27 -185 -38 -740 -15 -740 5 0
35 44 66 98 110 186 286 433 402 562 l49 55 33 -65 c44 -87 127 -168 217 -211
40 -19 72 -37 72 -42 1 -4 -42 -63 -95 -131 -103 -133 -246 -337 -240 -343 2
-2 57 21 122 51 135 61 386 150 555 195 339 91 569 121 959 128 389 7 668 -22
996 -102 894 -220 1671 -736 2241 -1490 168 -222 361 -561 473 -831 23 -55 45
-103 49 -107 10 -10 200 187 298 310 334 420 571 916 687 1439 66 300 71 350
71 759 0 361 -1 374 -28 525 -137 765 -439 1370 -941 1887 -384 396 -787 660
-1300 853 -281 105 -609 180 -868 199 -137 10 -653 13 -708 4z"/>
<path d="M5980 16185 c-669 -141 -1260 -453 -1734 -915 -193 -188 -336 -357
-465 -550 -324 -482 -507 -978 -583 -1580 -17 -139 -17 -609 1 -755 87 -724
370 -1373 831 -1910 93 -107 327 -338 425 -416 327 -264 729 -484 1120 -612
1078 -354 2264 -162 3173 512 320 237 597 525 811 841 104 154 99 144 54 125
-258 -109 -518 -200 -702 -245 -112 -27 -112 -27 -100 12 14 50 11 167 -6 233
-9 32 -29 82 -45 111 -17 28 -30 56 -30 62 0 5 37 20 83 32 199 53 477 146
477 160 0 4 -53 19 -117 34 -630 144 -1127 376 -1605 749 -269 209 -516 461
-721 733 -589 783 -867 1746 -782 2704 17 195 69 503 105 631 6 19 10 44 10
56 0 30 -7 29 -200 -12z"/>
<path d="M11870 12344 c-109 -7 -329 -34 -435 -55 -205 -41 -521 -133 -654
-191 l-46 -20 30 -14 c17 -7 37 -13 46 -14 73 -2 621 -170 722 -221 44 -23 45
-19 -29 -100 -62 -68 -93 -137 -107 -236 l-11 -85 -32 5 c-18 3 -75 21 -126
41 -86 32 -319 105 -392 122 -26 6 -16 -8 82 -124 141 -167 241 -299 335 -443
358 -547 562 -1128 633 -1804 22 -215 15 -642 -15 -855 -115 -813 -426 -1498
-961 -2115 -99 -113 -302 -312 -408 -400 -40 -33 -72 -62 -72 -65 0 -4 39 -26
88 -50 277 -136 524 -219 857 -289 381 -80 855 -92 1221 -30 838 140 1523 516
2089 1144 354 392 622 898 761 1435 85 329 107 537 101 951 -5 342 -17 450
-87 739 -239 985 -892 1819 -1785 2281 -368 191 -769 315 -1185 369 -141 18
-487 31 -620 24z"/>
<path d="M10604 11090 c24 -123 34 -789 11 -842 -6 -15 -13 -14 -68 11 -94 42
-159 55 -246 47 -42 -3 -88 -9 -103 -12 l-28 -6 0 259 c0 143 -3 281 -6 307
l-7 46 -49 -87 c-60 -108 -187 -299 -309 -464 -125 -169 -531 -576 -706 -708
-385 -288 -735 -476 -1158 -620 -268 -91 -543 -151 -850 -187 -199 -23 -631
-23 -828 0 -361 42 -710 128 -1042 257 -135 52 -444 206 -589 294 -59 36 -111
65 -116 65 -9 0 -27 -110 -40 -245 -5 -55 -10 -221 -10 -370 0 -237 3 -291 25
-445 95 -655 332 -1213 727 -1713 104 -132 446 -473 568 -567 489 -376 990
-597 1600 -705 265 -47 735 -56 1018 -19 642 83 1279 360 1769 768 665 553
1082 1280 1228 2141 30 178 48 484 40 695 -23 591 -210 1201 -519 1693 -83
133 -230 338 -278 390 -35 37 -39 39 -34 17z"/>
<path d="M6162 4590 c-51 -191 -158 -432 -286 -644 -43 -72 -74 -132 -69 -137
5 -5 62 -43 128 -84 l120 -75 17 22 c30 40 110 178 155 269 l45 89 99 0 c88 0
99 -2 99 -17 0 -38 -20 -341 -26 -395 l-6 -58 -299 0 -299 0 0 -140 0 -140
275 0 c244 0 275 -2 275 -16 0 -28 -40 -176 -67 -249 -94 -252 -275 -492 -512
-677 l-35 -26 98 -121 97 -121 62 47 c104 80 275 253 357 361 44 59 103 154
136 222 33 65 61 119 64 119 11 1 228 -292 391 -528 l36 -52 75 113 c41 62 82
125 91 139 l17 26 -133 154 c-74 85 -193 216 -265 292 -106 111 -131 143 -127
160 3 12 11 51 18 87 l13 65 242 3 242 2 0 140 0 140 -221 0 -222 0 7 78 c3
42 9 148 13 235 l6 157 194 0 194 0 -3 143 -3 142 -383 3 c-211 1 -381 6 -378
10 8 13 86 275 83 278 -3 4 -274 64 -285 64 -5 0 -18 -36 -30 -80z"/>
<path d="M12577 4493 c-9 -43 -42 -185 -74 -316 -50 -208 -59 -238 -77 -241
-12 -3 -82 -9 -156 -16 -109 -9 -491 -58 -496 -64 -4 -4 22 -135 28 -141 3 -4
82 5 175 19 197 29 410 52 418 44 3 -3 -6 -43 -20 -89 -153 -496 -312 -905
-497 -1282 l-87 -177 71 -36 c69 -35 72 -35 86 -18 18 24 147 290 222 459 117
265 277 710 368 1025 l40 135 157 3 c185 3 232 -7 317 -67 143 -103 195 -300
170 -649 -31 -435 -130 -690 -291 -747 -87 -30 -277 -12 -433 43 l-56 20 -5
-22 c-3 -11 -9 -46 -12 -77 l-7 -56 69 -21 c318 -97 513 -76 657 71 132 135
207 362 237 725 31 366 -17 618 -146 760 -116 128 -239 172 -488 172 -118 0
-128 1 -123 18 7 23 90 375 114 484 l20 87 -47 10 c-25 5 -62 12 -82 16 l-35
7 -17 -79z"/>
<path d="M9910 4429 c-267 -9 -536 -18 -599 -18 l-114 -1 5 -70 c3 -39 8 -74
12 -77 4 -4 277 5 608 20 331 15 603 25 605 24 1 -2 -321 -293 -717 -647
l-720 -643 47 -51 c26 -28 51 -52 55 -54 4 -2 40 24 80 58 235 198 590 373
871 431 126 25 327 28 434 5 197 -42 334 -161 379 -330 19 -69 18 -210 -2
-277 -31 -107 -106 -204 -219 -284 -64 -45 -164 -99 -171 -92 -3 2 -12 33 -20
68 -29 114 -94 238 -167 315 -108 115 -217 163 -392 171 -123 6 -192 -5 -272
-42 -71 -33 -147 -106 -180 -174 -25 -50 -28 -67 -28 -161 0 -98 2 -109 30
-158 59 -107 188 -191 350 -229 118 -27 373 -24 513 6 226 48 401 133 532 257
133 128 189 250 197 429 9 203 -38 338 -161 461 -115 114 -239 170 -431 195
-267 33 -560 -39 -832 -206 -24 -14 -43 -24 -43 -21 0 3 254 229 565 501 311
273 565 499 565 501 0 3 -19 29 -42 59 l-43 54 -105 -1 c-58 -1 -323 -9 -590
-19z m48 -1599 c122 -28 226 -116 285 -240 36 -77 72 -203 63 -219 -6 -9 -117
-27 -236 -36 -148 -12 -329 24 -415 83 -101 70 -132 180 -78 281 30 57 97 113
157 130 42 12 171 13 224 1z"/>
<path d="M7290 3265 l0 -1135 145 0 145 0 0 80 0 80 240 0 240 0 0 -80 0 -80
145 0 145 0 0 1135 0 1135 -530 0 -530 0 0 -1135z m770 75 l0 -780 -240 0
-240 0 0 780 0 780 240 0 240 0 0 -780z"/>
<path d="M13587 4128 c-31 -24 -56 -46 -57 -50 0 -4 21 -31 46 -59 108 -121
228 -309 304 -472 53 -116 121 -317 165 -488 l37 -147 71 24 c39 13 72 26 74
28 2 2 -10 59 -27 127 -84 332 -192 587 -348 825 -58 88 -190 254 -202 254 -3
0 -32 -19 -63 -42z"/>
</g>
</svg>
